<?xml version="1.0" encoding="utf-8"?>
<!-- Generator: Adobe Illustrator 23.0.0, SVG Export Plug-In . SVG Version: 6.00 Build 0)  -->
<svg version="1.1" id="Layer_1" xmlns="http://www.w3.org/2000/svg" xmlns:xlink="http://www.w3.org/1999/xlink" x="0px" y="0px"
	 viewBox="0 0 100 100" style="enable-background:new 0 0 100 100;" xml:space="preserve">
<style type="text/css">
	.st0{fill:#242424;}
	.st1{fill:#505050;}
	.st2{fill:#161616;}
</style>
<g>
	<g>
		<path class="st0" d="M81.35,18.65c1.02,1.02,1.65,2.42,1.65,3.98v54.75c0,1.55-0.63,2.96-1.65,3.98L100,100V0L81.35,18.65z"/>
	</g>
	<g>
		<path class="st0" d="M17,77.38V22.63c0-1.55,0.63-2.96,1.65-3.98L0,0v100l18.65-18.65C17.63,80.33,17,78.93,17,77.38z"/>
	</g>
	<g>
		<path class="st1" d="M80.95,81.72c-0.28,0.23-0.58,0.43-0.9,0.61c-0.8,0.43-1.71,0.68-2.68,0.68H22.63
			c-0.19,0-0.39-0.01-0.58-0.03c-0.38-0.04-0.75-0.11-1.1-0.22c-0.35-0.11-0.69-0.25-1.01-0.43c-0.48-0.26-0.91-0.59-1.3-0.97L0,100
			h100L81.35,81.35C81.23,81.48,81.09,81.6,80.95,81.72z"/>
	</g>
	<g>
		<path class="st2" d="M19.23,18.15c0.23-0.17,0.46-0.33,0.71-0.47c0.32-0.17,0.66-0.32,1.01-0.43c0.35-0.11,0.72-0.19,1.1-0.22
			c0.19-0.02,0.38-0.03,0.58-0.03h54.75c0.58,0,1.14,0.09,1.67,0.25c0.35,0.11,0.69,0.25,1.01,0.43c0.32,0.17,0.62,0.38,0.9,0.61
			c0.14,0.11,0.27,0.24,0.4,0.36L100,0H0l18.65,18.65C18.83,18.47,19.03,18.3,19.23,18.15z"/>
	</g>
</g>
</svg>
