<?xml version="1.0" encoding="utf-8"?>
<svg version="1.1" id="logo" xmlns="http://www.w3.org/2000/svg"
	 viewBox="0 0 212.5 85.8" width="200" style="enable-background:new 0 0 212.5 85.8;" xml:space="preserve">
<style type="text/css">
	.st0{fill:#eeeeee;}
</style>
<g>
	<g>
		<g>
			<path class="st0" d="M1.3,35.3C1.3,36.2,2,37,3,37c0.9,0,1.7-0.8,1.7-1.7c0-1-0.8-1.7-1.7-1.7C2,33.5,1.3,34.3,1.3,35.3z"/>
			<path class="st0" d="M6.5,58c0,1.1,0.4,2.4,1.4,3c-1,0.5-1.4,1.8-1.4,2.9c0,2.3,1.1,4.1,4.1,4.1h13c0.3,0,0.5-0.2,0.5-0.5v-1.8
				c0-0.3-0.2-0.5-0.5-0.5h-15c-1.1,0-1.5-0.5-1.5-1.3c0-0.8,0.4-1.3,1.4-1.3h15.1c0.3,0,0.5-0.2,0.5-0.5v-1.8
				c0-0.3-0.2-0.5-0.5-0.5l-15.1,0c-1,0-1.5-0.6-1.5-1.4c0-0.8,0.4-1.2,1.5-1.2h15c0.3,0,0.5-0.2,0.5-0.5v-1.8
				c0-0.3-0.2-0.5-0.5-0.5H10.4C7.4,54.3,6.5,55.7,6.5,58z"/>
			<path class="st0" d="M6.5,47.9c0,2.3,1.4,4.3,4.2,4.3h9.1c2.8,0,4.2-1.5,4.2-4.1c0-2.1-1.1-4.1-3.2-4.3c0,0-0.2,0-0.3,0h-2.1
				c-0.3,0-0.5,0.2-0.5,0.5V46c0,0.3,0.2,0.5,0.5,0.5h2.5h1.2c1.1,0,1.5,0.6,1.5,1.4c0,0.8-0.4,1.4-1.5,1.4h-3.4
				c-0.8,0-1.5-0.5-1.9-1.7c-0.3-0.9-0.7-2.1-1.5-3c-0.9-0.9-2.1-1-2.9-1h-2C7.6,43.7,6.5,45.6,6.5,47.9z M14.2,46.6
				c0.8,0,1.6,0.2,2.1,1.6c0.1,0.4,0.4,0.8,0.7,1.2H8.5C7.4,49.4,7,48.8,7,48c0-0.8,0.4-1.4,1.5-1.4H14.2z"/>
			<path class="st0" d="M1.3,39.5v1.8c0,0.3,0.2,0.5,0.5,0.5h21.8c0.3,0,0.5-0.2,0.5-0.5v-1.8c0-0.3-0.2-0.5-0.5-0.5H1.8
				C1.5,38.9,1.3,39.2,1.3,39.5z"/>
			<path class="st0" d="M6.5,34.4v1.8c0,0.3,0.2,0.5,0.5,0.5h16.5c0.3,0,0.5-0.2,0.5-0.5v-1.8c0-0.3-0.2-0.5-0.5-0.5H7.1
				C6.8,33.8,6.5,34.1,6.5,34.4z"/>
			<path class="st0" d="M15.6,24.4c-0.8,0.9-1.3,2.1-1.7,3c-0.6,1.3-1.2,1.7-2.2,1.7H8.5C7.4,29,7,28.4,7,27.6
				c0-0.8,0.4-1.4,1.5-1.4h3.4c0.3,0,0.5-0.2,0.5-0.5V24c0-0.3-0.2-0.5-0.5-0.5c0,0-2,0-2,0c-2.2,0-3.3,1.9-3.3,3.9
				c0,2.5,1.5,4.4,4,4.4h1.3c0.8,0,1.9-0.1,2.7-0.9c0.9-0.9,1.4-2.1,1.9-3c0.6-1.1,1.1-1.7,2-1.7h3.7c1.2,0,1.5,0.6,1.5,1.4
				c0,0.8-0.4,1.4-1.5,1.4l-3.7,0c-0.3,0-0.5,0.2-0.5,0.5v1.7c0,0.3,0.2,0.5,0.5,0.5h2.1c0.1,0,0.4,0,0.5,0c2.1-0.3,3.1-1.8,3.1-4
				c0-2.8-1.7-4.4-4.2-4.4h-1.3C17.6,23.3,16.4,23.5,15.6,24.4z"/>
			<path class="st0" d="M15.6,14.5c-0.8,0.9-1.3,2.1-1.7,3c-0.6,1.3-1.2,1.7-2.2,1.7H8.5c-1.1,0-1.5-0.6-1.5-1.4
				c0-0.8,0.4-1.4,1.5-1.4h3.4c0.3,0,0.5-0.2,0.5-0.5v-1.7c0-0.3-0.2-0.5-0.5-0.5c0,0-2,0-2,0c-2.2,0-3.3,1.9-3.3,3.9
				c0,2.5,1.5,4.4,4,4.4h1.3c0.8,0,1.9-0.1,2.7-0.9c0.9-0.9,1.4-2.1,1.9-3c0.6-1.1,1.1-1.7,2-1.7h3.7c1.2,0,1.5,0.6,1.5,1.4
				c0,0.8-0.4,1.4-1.5,1.4h-3.7c-0.3,0-0.5,0.2-0.5,0.5v1.7c0,0.3,0.2,0.5,0.5,0.5h2.1c0.1,0,0.4,0,0.5,0c2.1-0.3,3.1-1.8,3.1-4
				c0-2.8-1.7-4.4-4.2-4.4h-1.3C17.6,13.5,16.4,13.6,15.6,14.5z"/>
			<path class="st0" d="M6.5,7.6c0,2,1.2,4.2,3.4,4.2H12c0.3,0,0.5-0.2,0.5-0.5V9.7c0-0.3-0.2-0.5-0.5-0.5H8.5C7.4,9.2,7,8.5,7,7.7
				c0-0.8,0.3-1.3,1.3-1.3h3.4c0.8,0,1.5,0.3,2,1.7c0.4,1.1,0.6,2,1.5,2.9c0.9,0.9,2.3,1.1,3.4,1.1h1.7c2.7,0,3.8-1.3,3.8-3.5
				c0-1-0.4-2-1.2-2.5h0.6C23.8,6,24,5.8,24,5.5V4.1c0-0.3-0.2-0.5-0.5-0.5H10.3C7.8,3.5,6.5,5.3,6.5,7.6z M21.9,6.4
				c1.1,0,1.6,0.7,1.6,1.5c0,0.8-0.5,1.3-1.5,1.3h-5.2c-1.4,0-2-0.5-2.3-1.6c-0.1-0.4-0.3-0.8-0.4-1.2H21.9z"/>
		</g>
	</g>
	<g>
		<g>
			<path class="st0" d="M49,40.7H31.6V1.2h15c2.2,0,4.1,0.2,5.7,0.7c1.7,0.4,3.1,1.1,4.1,1.9c1.1,0.9,1.9,1.9,2.5,3.1
				c0.5,1.2,0.8,2.6,0.8,4.2c0,0.9-0.1,1.7-0.3,2.6c-0.2,0.8-0.5,1.7-1,2.5c-0.4,0.8-1.1,1.6-1.8,2.2c-0.6,0.5-1.2,0.9-1.9,1.3
				c2.2,0.7,3.9,1.9,5.1,3.4c1.3,1.7,2,3.9,2,6.5c0,1.6-0.3,3.1-0.8,4.5c-0.5,1.4-1.3,2.5-2.4,3.5c-1.1,1-2.4,1.8-4.1,2.4
				C52.9,40.4,51.1,40.7,49,40.7z M32.4,39.9H49c2,0,3.8-0.3,5.3-0.8c1.5-0.5,2.8-1.2,3.8-2.2c1-0.9,1.7-2,2.2-3.3
				c0.5-1.3,0.7-2.7,0.7-4.2c0-2.4-0.6-4.4-1.8-6c-1.2-1.6-3.1-2.8-5.5-3.4L53.4,20v-0.7l0.2-0.1c1-0.4,1.8-0.9,2.5-1.5
				c0.7-0.6,1.3-1.3,1.7-2c0.4-0.7,0.7-1.5,0.9-2.3c0.2-0.8,0.3-1.6,0.3-2.4c0-1.4-0.3-2.7-0.8-3.8c-0.5-1.1-1.2-2-2.2-2.8
				c-1-0.8-2.3-1.4-3.9-1.8C50.6,2.2,48.7,2,46.6,2H32.4V39.9z M46.2,32.7h-5.7v-9h5.7c2,0,3.5,0.4,4.5,1.2c1.1,0.8,1.6,1.9,1.6,3.3
				c0,0.7-0.2,1.4-0.5,2c-0.3,0.6-0.7,1-1.3,1.4c-0.5,0.4-1.2,0.6-1.9,0.8C47.9,32.6,47.1,32.7,46.2,32.7z M41.3,31.9h4.9
				c0.8,0,1.6-0.1,2.2-0.3c0.6-0.2,1.2-0.4,1.7-0.7c0.4-0.3,0.8-0.7,1-1.1c0.2-0.5,0.4-1,0.4-1.6c0-1.1-0.4-2-1.3-2.7
				c-0.9-0.7-2.2-1-4-1h-4.9V31.9z M45.2,17.4h-4.7V9.2h4.4c1.8,0,3.2,0.3,4.2,1.1c1,0.7,1.4,1.8,1.4,3c0,1.3-0.5,2.4-1.6,3.1
				C48,17.1,46.7,17.4,45.2,17.4z M41.3,16.6h3.9c1.4,0,2.5-0.3,3.3-0.9c0.8-0.6,1.2-1.4,1.2-2.4c0-1-0.4-1.8-1.1-2.4
				c-0.8-0.6-2-0.9-3.7-0.9h-3.6V16.6z"/>
		</g>
		<g>
			<path class="st0" d="M93.8,40.7H67.6V1.2h10v30.6h16.3V40.7z M68.4,39.9H93v-7.3H76.7V2h-8.4V39.9z"/>
		</g>
		<g>
			<path class="st0" d="M135.2,40.7h-10.4l-2.3-6.9h-13l-2.2,6.9H96.8l14.5-39.5h9.3L135.2,40.7z M125.3,39.9h8.7L120.1,2h-8.2
				L98,39.9h8.7l2.2-6.9h14.2L125.3,39.9z M120.8,26.1h-9.7l4.5-13.9h0.7L120.8,26.1z M112.2,25.3h7.5L116,13.7L112.2,25.3z"/>
		</g>
		<g>
			<path class="st0" d="M156.3,41.2c-2.2,0-4.3-0.3-6.3-0.8c-2-0.5-3.9-1.4-5.6-2.5c-1.7-1.1-3.2-2.5-4.5-4c-1.3-1.6-2.3-3.5-3-5.7
				c-0.7-2.2-1.1-4.5-1.1-7.1c0-2.2,0.3-4.4,0.9-6.4c0.6-2,1.4-3.9,2.6-5.6c1.1-1.7,2.5-3.2,4.1-4.4c1.6-1.2,3.5-2.2,5.7-2.9
				c2.2-0.7,4.6-1,7.1-1c1.9,0,3.7,0.3,5.5,0.8c1.8,0.5,3.7,1.4,5.5,2.5c1.8,1.2,3.5,2.6,4.9,4.3l0.2,0.3l-7.3,6.2l-0.3-0.3
				c-1-1.2-2.3-2.3-3.8-3.1c-1.5-0.8-3.1-1.2-4.8-1.2c-0.9,0-1.8,0.1-2.6,0.3c-0.9,0.2-1.7,0.5-2.4,1c-0.7,0.4-1.4,0.9-2,1.6
				c-0.6,0.6-1.1,1.3-1.6,2.1c-0.4,0.8-0.8,1.7-1,2.7c-0.2,1-0.4,2.1-0.4,3.2c0,2,0.4,3.8,1.2,5.4c0.8,1.6,2,2.9,3.5,3.8
				c1.5,0.9,3.3,1.4,5.3,1.4c1.6,0,3.2-0.4,4.8-1.2c1.5-0.8,2.8-1.8,3.9-3.1l0.3-0.3l7.3,6.2l-0.2,0.3c-1.8,2.3-4.1,4.1-6.8,5.5
				C162.6,40.5,159.6,41.2,156.3,41.2z M156.3,1.4c-2.5,0-4.8,0.3-6.9,1c-2.1,0.7-3.9,1.6-5.5,2.8c-1.5,1.2-2.9,2.6-4,4.2
				c-1.1,1.6-1.9,3.4-2.5,5.4c-0.5,2-0.8,4.1-0.8,6.2c0,2.4,0.3,4.7,1,6.8c0.7,2.1,1.6,3.9,2.8,5.4c1.2,1.5,2.6,2.8,4.3,3.9
				c1.6,1.1,3.4,1.9,5.4,2.4c1.9,0.5,4,0.8,6.1,0.8c3.2,0,6.1-0.7,8.7-2c2.5-1.3,4.6-2.9,6.3-5l-6.1-5.2c-1.1,1.2-2.3,2.2-3.9,3
				c-1.6,0.8-3.4,1.3-5.1,1.3c-2.1,0-4-0.5-5.7-1.5c-1.7-1-2.9-2.4-3.8-4.1c-0.9-1.7-1.3-3.6-1.3-5.7c0-1.2,0.1-2.3,0.4-3.4
				c0.3-1.1,0.6-2,1.1-2.9c0.5-0.9,1-1.6,1.7-2.3c0.7-0.7,1.4-1.3,2.2-1.7c0.8-0.4,1.7-0.8,2.6-1c0.9-0.2,1.9-0.4,2.8-0.4
				c1.8,0,3.6,0.5,5.2,1.3c1.5,0.8,2.7,1.8,3.8,3l6.1-5.2c-1.3-1.5-2.8-2.8-4.4-3.9c-1.8-1.1-3.5-1.9-5.3-2.4
				C159.8,1.7,158,1.4,156.3,1.4z"/>
		</g>
		<g>
			<path class="st0" d="M211.3,40.7H199L190,26.3l-2.5,3v11.4h-9.9V1.2h9.9v14.2l10.7-14.2h12.6l-14.3,17.2L211.3,40.7z M199.5,39.9
				h10.3l-14.2-21.5L209.1,2h-10.5l-11.2,14.8h-0.7V2h-8.3v37.9h8.3V29l3-3.7h0.6L199.5,39.9z"/>
		</g>
	</g>
	<g>
		<path class="st0" d="M59.1,53.4H40.4l1,9.8h16.7l0.6,6.1H42.1l0.3,2.9L30,73.7l12.3,1.9l-10.5,1.5l11.3,1.7l0.2,1.6l0.2,1.5
			l0.3,2.5h-7.6l-0.2-2.2l-0.2-1.7l-0.2-1.5l-23-1.8l22.6-1.7L20,73.8l14.8-1.6l-2.6-25h26.3L59.1,53.4z"/>
		<path class="st0" d="M66.7,79.3l-26.6-2.1l25.3-1.5l-26-1.8L66,72.3l-2.6-25.1h15.9c1,0,1.9,0.1,2.9,0.2h0c3,0.6,5.6,1.7,7.6,3.4
			c2.3,2,3.7,4.7,4,7.8c0.2,2.5-0.2,4.8-1.2,6.6c-0.9,1.5-2.3,2.8-4,3.7L88.1,69l0.3,0.4l0.7,1l1.4,2L76,74l17.1,1.6l-21.6,1.9
			l23.4,1.6l1,1.4l1.1,1.6l0.8,1.1l0.9,1.3h-8.8l-1.5-2.2l-1-1.4l-1-1.5c0,0-16.9-1.2-25.3-1.7c0,0,15.5-1.4,22.8-1.9
			c0,0-14.7-1.1-20.2-1.6c0-0.1,17.8-1.7,17.8-1.7l-1-1.9h-6.9l0,0.4l0.3,1.4c-5.3,0.6-20.1,1.6-20.1,1.6l20.5,1.8
			c-7.9,0.5-22.6,1.6-22.6,1.6l22.8,1.9l0.1,1.4l0.2,1.7l0.2,2.2h-7.6L67,82.2l-0.2-1.8L66.7,79.3z M71.6,53.2l1.2,11.2h6.9
			c2.2,0,3.8-0.5,4.9-1.5c1.1-1,1.5-2.3,1.3-4.1c-0.2-1.8-0.9-3.1-2.1-4.1c-1.3-1-3-1.5-5.4-1.5H71.6z"/>
		<path class="st0" d="M98.4,47.2h7.6l2.7,25.1L92.9,74l15.4,1.5l-21.1,1.9l22.1,1.6l0.1,1.3l0.2,1.9l0.2,2.3h-7.5l-0.2-2.2l-0.2-2
			l-0.1-1.1l-22.7-1.6l21.7-2c0,0-14.5-1.5-14.5-1.5l14.7-1.6L98.4,47.2z"/>
		<path class="st0" d="M117.5,84.4l-0.4-3.9l-0.2-0.4l-0.1-1.2l-22.3-1.8l21.7-2L102,73.5l14.1-1.5l-2.5-24.8l8,0
			c5.6,0,13.3,0.2,19,5c3.8,3.2,5.9,7.8,6.6,13.7c0.1,0.9,0.1,3,0.1,3.9c0,0.3,0,0.6,0,1c0,0.1-0.1,1.3-0.1,1.3l-15.2,1.8l14.2,1.4
			L124.6,78l20.4,1.4C145,79.4,136.5,87.6,117.5,84.4z M139.8,71.9c0,0,0.2-1.2,0.2-1.7c0-0.8,0-3.4-0.1-4.3v-0.1
			c-0.7-6.5-5.6-11.1-12.1-11.1h-6.2l2,17.4l-12.5,1.4l16.4,1.6l-16.3,2l27.4-1.9l-15.4-1.4C123.1,73.8,134.2,72.4,139.8,71.9z"/>
		<path class="st0" d="M186.2,84.4h-8.8l-1.7-5.2l-25.1-1.9l12-1.6l-22.9,1.4l18.1,1.5l-1,5.8h-8.8l1.9-5.6l-18.3-1.3l24.5-2.8
			l-19.6-1.1l15.7-1.5l8-25h6.5l12.9,25L162,73.9l19.4,1.7l-18,1.5l19.8,1.6L186.2,84.4z M170.7,70.5l-6.7-14.1l-3.7,14.1H170.7z"/>
		<path class="st0" d="M210.6,47.1l-11.1,24.8l-19.5,1.7l19,1.8L178.4,77l21.8,1.7l0.1,1.3l0.2,1.8l0.3,2.7h-7.6l-0.3-2.7l-0.2-1.9
			l-0.1-1L171.2,77l13.6-1.7l-13.7-1.6l20.6-1.8l-16.4-24.8h8.8l10.4,15.3l7.2-15.3H210.6z"/>
	</g>
</g>
</svg>
